<svg xmlns="http://www.w3.org/2000/svg" xmlns:xlink="http://www.w3.org/1999/xlink" width="22" height="22" viewBox="0 0 22 22">
  <defs>
    <rect id="rect-1" width="22" height="22" x="0" y="0"/>
    <mask id="mask-2" maskContentUnits="userSpaceOnUse" maskUnits="userSpaceOnUse">
      <rect width="22" height="22" x="0" y="0" fill="black"/>
      <use fill="white" xlink:href="#rect-1"/>
    </mask>
  </defs>
  <g>
    <use fill="none" xlink:href="#rect-1"/>
    <g mask="url(#mask-2)">
      <path fill="rgb(35,31,32)" fill-rule="evenodd" d="M12.23474121.05270386C12.2015381.04100036 12.17089844.02311706 12.14440918 0L9.88562012-.05270386c-.16210938.06357575-.32055664.13647461-.47424317.21834564-.37963867.25409699-.62329101.66675568-.66259765 1.1218338-.11291504.63996888-.24853516 1.27241517-.3614502 1.90486146-.02062988.113945-.09692383.21001434-.20324707.25598907-.3585205.24443054-.84057617.196846-1.14440918-.11293793-.44238281-.34012603-.90222168-.65678405-1.37780762-.94866943-.56030273-.4287033-1.35693359-.3496933-1.82202148.1807022L2.69543457 3.71183778c-.53723145.4688034-.61340332 1.27616882-.17321777 1.83709717.39147949.58727264.78295898 1.17454528 1.1895752 1.75428009.05651855.11384582.05651855.24755096 0 .36139679-.07128907.4190979-.44091798.72127533-.86584473.70773315-.5345459.05270386-1.05407715.20328522-1.5810547.30116272-.61865234.0789032-1.12463378.53100586-1.27246093 1.13689423v2.34907531c.1237793.56595612.59191895.99176789 1.16699219 1.06160736.51953125.0903473 1.0390625.23339844 1.55859375.29363251.4519043-.02020263.84570312.30523682.91101074.7529068.0526123.1094284.0526123.23690796 0 .34633637-.42919922.57221222-.79064941 1.15195465-1.1821289 1.73169708-.44580079.5754776-.3701172 1.39778137.17321777 1.88227081l1.12927246 1.12935639c.46813965.54893493 1.28686523.62879943 1.85217285.1807022.45178223-.30116271.92614746-.5797348 1.34777832-.9260788.3079834-.32933806.81066895-.38376617 1.18200684-.12799071.09802246.04121399.16870117.12890625.18823242.23339843.13549805.737854.27856445 1.45311737.43676758 2.20602417.06176757.61915589.58239746 1.09093476 1.20458984 1.09172058.69213867.03764344 1.38586426.03764344 2.07800293 0 .63928223-.01387786 1.17150879-.49478912 1.24987793-1.129364.1204834-.61738587.24841309-1.22724152.35388184-1.84462739.04516601-.30116272.12792968-.57221222.47424316-.57221222.07836914-.01843262.15246582-.05165863.21838379-.0978775.09521484-.07410431.2286377-.07410431.32373047 0l1.75427246 1.18959808c.57580566.44499207 1.39892578.36234284 1.87475586-.18823242l1.11437988-1.10677338c.55419922-.46631622.63122559-1.2911911.1730957-1.85215759-.30114746-.44421387-.57214355-.91854858-.91101074-1.33264923-.3305664-.30350494-.38830566-.80371094-.13549805-1.17453766.04907227-.10392761.14367676-.17908478.25598145-.20328522l2.10058594-.39904022c.63598633-.0791397 1.11547851-.61647796 1.12182617-1.25736236v-2.01026154c.00170898-.63583374-.46887207-1.17409515-1.09924317-1.25736236-.53344726-.13256836-1.07385253-.23562623-1.6187744-.30869294-.45434571.02753449-.852417-.30147552-.91101075-.7529068-.03442383-.09483337-.03442383-.19879913 0-.2936325.39160156-.60232544.7980957-1.18959809 1.18969726-1.78439331.43347168-.57230378.35473633-1.3815384-.18078613-1.8596878l-1.07666015-1.07666017c-.23413086-.29328918-.5777588-.4783783-.9515381-.51248931-.37377929-.0341034-.74523925.08572387-1.02856444.33179473-.44372559.27440644-.87341309.57092286-1.28747559.88842774-.30285644.32431793-.79968262.37271118-1.1595459.11293793-.08874512-.0526352-.15551758-.13549805-.18811035-.23339844-.15063477-.68515015-.27111816-1.38535309-.41418457-2.07050324-.07800293-.56609344-.4921875-1.02796936-1.04650879-1.16700744zm5.1574707 18.47638702l-.15063476.13552094-.19567871-.10540772c-.69274903-.45927429-1.37780762-.91101837-2.05541992-1.37782287-.26660157-.19796753-.6262207-.21580506-.91113282-.04517365-.3425293.16797638-.694458.31629181-1.05395507.4442215-.24987793.09529876-.43041993.31596374-.47436524.5797348-.15808105.82067108-.32373047 1.64134216-.47436523 2.46954346-.03015137.15811157-.10534668.20328521-.25598145.20328521h-1.61120605c-.17321778 0-.2409668-.06776428-.27856446-.23339843-.15063476-.8282013-.31628418-1.64888-.47436523-2.46954346-.03381348-.25252533-.20947266-.46328735-.45178223-.542099-.44421387-.16563416-.80554199-.33127594-1.19714355-.51197815-.23217774-.11050415-.50720215-.07832336-.7076416.0828247l-1.98022461 1.31758881c-.15112305.102005-.20178223.17368317-.25756836.17792511-.05529785.0042038-.11572266-.05805969-.2845459-.22309875-.33874512-.33128357-.66247559-.67008972-1.00878906-.99384308-.0543213-.04432678-.08569336-.11066437-.08569336-.18069458 0-.07003784.03137207-.13637543.08569336-.1807022.46679687-.68514253.91845703-1.3853531 1.3852539-2.07049561.20593262-.25148774.22717285-.6066742.05273438-.88090516-.16540528-.33766174-.31115723-.68457794-.43664551-1.03901672-.08666992-.2686615-.31628418-.4663086-.59484863-.51197815l-2.46948242-.47433472c-.17321778-.03764343-.23339844-.10540008-.23339844-.27857208v-1.56604767c-.00756836-.20329284.07519531-.26351928.26342773-.30116272l2.44702149-.4668045c.25073242-.03945923.45776367-.21727753.5345459-.4592743.15808105-.42163085.32373046-.79055785.50439453-1.17453765.1142578-.24494934.0883789-.5322876-.06774903-.75291443-.45922851-.68514252-.91101074-1.37029266-1.37780761-2.05544281-.1279297-.18069458-.13549805-.30116272.03771972-.4592743.36132813-.33127593.70019531-.6776123 1.03149414-1.03147887.04858399-.05510712.1184082-.08666993.19189453-.08666993s.14343262.0315628.1920166.08666993c.67761231.45927429 1.37036133.91101837 2.04797364 1.37782287.25744629.21446991.62585449.23287964.90344238.04517365.32165527-.1622467.65368652-.30309296.99389649-.42163086.28979492-.07783509.50585937-.32042694.54956054-.61738587.15063477-.80561065.31628418-1.60369873.45922852-2.40930938.03015137-.17316437.09790039-.24845887.28613281-.24845887h1.58862305c.18078613 0 .27111816.06023407.27111816.23339844.1505127.8282013.31616211 1.64887238.47436524 2.46954346.03674316.25366974.21508789.46411133.45922851.542099.4140625.15810394.78295899.32374572 1.16699219.50444793.24621582.11199189.5336914.08325196.75292969-.0752945.69262695-.45927428 1.39282226-.91854857 2.07800293-1.38535308.04553222-.06008148.11657714-.09537506.1920166-.09537506.07543945 0 .14648437.03529358.1920166.09537506.33874512.346344.72277832.737854 1.0916748 1.0992508.0979004.1204605.10546875.21834564 0 .37644958-.45922851.67761993-.91101074 1.3703003-1.37023925 2.05544281-.1953125.24694824-.21643067.58933258-.05273438.85832214.16540527.3201828.30627442.65240479.42163086.99383545.07214356.31327057.33532715.54615784.6550293.57974243.80554199.14305115 1.61120605.31622315 2.4243164.4668045.15063477.02258302.21081543.08281709.21081543.24092866v1.54346466c.01306153.07675934-.00756836.15542602-.05651855.21595001-.0489502.06051636-.1217041.0970459-.1994629.1002655-.8206787.150589-1.63378905.32375336-2.4468994.4668045-.27197266.04558564-.49731446.23622895-.58728028.49692536-.13684082.37409973-.2927246.74098969-.46679687 1.09924317-.14440918.26130676-.12084961.58325195.06018066.82067108.45935059.68515014.91101074 1.37782287 1.37780762 2.0554428.05895996.05939484.0880127.14211274.07922363.22529603-.008667.08318329-.05444336.15802765-.12438965.20385742-.36132812.346344-.70776367.70774078-1.0690918 1.06160736z"/>
      <path fill="rgb(35,31,32)" fill-rule="evenodd" d="M12.4420166 14.51755524c1.40527344-.59693909 2.31066895-1.98343659 2.2923584-3.51002503-.0246582-2.06143951-1.70288086-3.71952057-3.76452637-3.7193756-1.5267334.00011443-2.9020996.92227935-3.48205566 2.33454894-.57995606 1.4122696-.24951172 3.03495026.83654785 4.10795593 1.08605957 1.07300568 2.71252441 1.38383484 4.11767578.78689576zm-3.78918457-4.45267487c.38769531-.93779755 1.30236817-1.549469 2.31713867-1.54947662h.03759766c1.36877441.01649475 2.4696045 1.1308136 2.4696045 2.49965667.00292968 1.01474-.60595704 1.93125916-1.54260255 2.32170105-.93652343.3904419-2.01623535.17779541-2.73486328-.53865814-.71850586-.71645355-.93444824-1.79542541-.546875-2.73322296z"/>
    </g>
  </g>
</svg>
