<svg xmlns="http://www.w3.org/2000/svg" width="17.352" height="19.705" viewBox="0 0 17.352 19.705">
  <g>
    <path fill="rgb(246,246,246)" fill-rule="evenodd" d="M4.36844122 12.74234203c.23051317.23188935.23051275.60639892-9.4e-7.83828775-.23188935.23051318-.60639892.23051276-.83828775-9.4e-7L.23051296 10.27503655C-2.1e-7 10.0431472 2e-7 9.66863763.2305139 9.4367488l3.34126416-3.34125665c.23588624-.20200735.5875116-.18842519.80711246.03117616.21960085.21960135.23318222.57122674.03117435.80711253L2.12112055 9.22866531l7.31866826.00000822c.32835003 3.7e-7.59453002.26618096.59452965.59453099-.00065976.15888579-.06488998.31089681-.17835957.42211633-.11073772.10983588-.2602024.17175677-.41617142.17241332l-7.37812128-.00000829 2.30677503 2.32461615z"/>
    <path fill="none" stroke="rgb(246,246,246)" stroke-linecap="round" stroke-linejoin="miter" stroke-width="1" d="M14 2.35231505v15"/>
  </g>
</svg>
