<svg xmlns="http://www.w3.org/2000/svg" width="14.92" height="20" viewBox="0 0 14.92 20">
  <g>
    <path fill="rgb(255,255,255)" fill-rule="evenodd" d="M14.25985475 3.3346277c.66004277-.7757058.63134446-1.92363816-.06663484-2.66539341l-.1199427-.1199427C13.7308613.19467598 13.2553666 0 12.76257823.01266808c-.49278838.01266807-.9576526.23151782-1.28139611.60325833-.20903406.22298992-.20903406.56996461 0 .79295454l1.91241977 1.93241022c.11095636.12281184.2691152.19234165.43462182.19106852.16550661-.00127312.3225771-.07322778.43163104-.197732z"/>
    <path fill="rgb(255,255,255)" fill-rule="evenodd" d="M9.59541628 2.73491418L3.0718659 10.06474606c-.21239023.22165217-.21239023.57130237 0 .79295454l1.91908325 1.9390737c.10960577.1170321.26278803.18344184.4231312.18344184.16034318 0 .31352544-.06640975.42313121-.18344183l6.52355037-7.32983188c.20903406-.22298993.20903406-.56996462 0-.79295454l-1.91241977-1.9390737c-.1107827-.11738823-.26505413-.18392098-.42646295-.18392098-.1614088 0-.31568023.06653275-.42646294.18392097z"/>
    <path fill="rgb(255,255,255)" fill-rule="evenodd" d="M1.6592074 11.78392481c.0338356-.1810372.16449875-.32879311.34003754-.38451971.17553879-.0557266.36750071-.01039135.49956138.11798037l.99952253.99952253.99952253 1.00618601c.13163384.13303846.1860194.32419264.14413339.5065995-.04188602.18240686-.17421548.33068574-.35070138.39297078l-1.3326967.41979946-1.3326967.41979946c-.18987107.0692293-.40265723.022119-.5455623-.12078606-.14290506-.14290507-.19001536-.35569123-.12078606-.54556229l.3198472-1.42598548.37981857-1.38600457z"/>
    <path fill="rgb(255,255,255)" fill-rule="evenodd" d="M.84959415 18.3008117h12.96047546c.46890378 0 .84959415.38069037.84959415.84959415 0 .46890378-.38069037.84959415-.84959415.84959415H.84959415C.38069037 20 0 19.61930963 0 19.15040585c0-.46890378.38069037-.84959415.84959415-.84959415z"/>
  </g>
</svg>
