<svg xmlns="http://www.w3.org/2000/svg" width="18.652" height="8.49" viewBox="0 0 18.652 8.49">
  <path fill="rgb(28,28,28)" fill-rule="evenodd" d="M11.72800907 5.8991347c-1.61312803.41983104-3.30367888.41983104-4.91680692 0-.0715172.52466014-.13856456 1.0219467-.21008175 1.52379553-.02233128.21352366-.05816462.42535027-.10727579.63415444-.07203287.2669829-.33213655.4334049-.59895648.38323001-.26687437-.037548-.46111796-.27744335-.44698245-.55203371.04022842-.52466014.1072758-1.04475802.1832628-1.5648559.11174562-.7710223.09833615-.72539967-.5676677-1.0721316-.66600385-.34673191-1.39011541-.83489396-2.0829382-1.25918433-.0536379-.03193584-.10280597-.0729962-.18326281-.1323056-.17432316.54747145-.34417649 1.06756933-.50956 1.59222947-.04469824.1323056-.075987.26917346-.1296249.3969168-.12538928.2983858-.45252258.4505171-.75540034.35129418-.27309275-.12674762-.39937646-.45099989-.28606876-.7345242.22796104-.70258836.44698244-1.40517672.70623226-2.09864056.0740089-.1693731.02617903-.36840446-.11621543-.48359978 0 0-.80456841-.91245242-1.55549892-1.82490484C.0491667.94531999 0 .79265704.0162679.6397223.03253583.48678762.11265654.34845186.23609034.26017875.35711493.16972925.50909248.13367856.65679264.16038367c.14770018.02670511.2782972.11384705.36151699.2412252.47827122.55659597.92972349 1.14056552 1.4437533 1.6606634 1.38415158 1.44818756 3.1597378 2.44249392 5.10006973 2.85597607 1.77095544.36695947 3.60994228.16123705 5.26098341-.5885318 1.87113347-.86420962 3.48888502-2.21190925 4.6933157-3.90985863.08142342-.12537986.19000804-.2299661.31735754-.30567156.2136606-.11418635.47671582-.05665164.62577543.13686787.17902537.18154282.19260292.4725679.03128877.67065252-.29947824.40147907-.61236596.79839587-.93866314 1.17706363-.24562953.27960253-.50522416.54608845-.77774946.79839586-.12275484.08627868-.1646672.25156163-.09833614.38779228.22349122.6022186.44698245 1.21356172.6391849 1.82490484.04022842.11405655.08492666.2281131.11621544.34216966.06003622.14528039.05742007.30963809-.00720823.45285122-.0646283.14321313-.18530519.25206675-.33249843.29992202-.31552284.09576743-.64840523-.0822055-.75093052-.40147906-.18773262-.54747145-.3665256-1.0949429-.55425823-1.64241436-.02681895-.09124524-.05810772-.17336596-.07598702-.22355084l-2.94561433 1.70628603c.0893965.61134312.18773263 1.29568243.28159894 1.984584.02902218.13680344.02902218.27836243 0 .41516586-.04994168.24162156-.26334282.4112469-.50509016.40147907-.25259984.0255586-.48210165-.15111996-.52743929-.40604133-.08939649-.4927243-.1475042-.9991354-.21455157-1.49642197-.0357586-.2053018-.0715172-.41060359-.0715172-.64327896z"/>
</svg>
