<svg xmlns="http://www.w3.org/2000/svg" width="11.947" height="12.42" viewBox="0 0 11.947 12.42">
  <path fill="rgb(28,28,28)" fill-rule="evenodd" d="M9.74157715 5.10057068h.38757324c1.00247192 0 1.81817627.77507019 1.81817627 1.7276001v3.86460876c0 .9521637-.81570435 1.72723389-1.81817627 1.72723389H1.81817627C.81570435 12.42001343 0 11.64494323 0 10.69277954V6.82817078c0-.95252991.81570435-1.7276001 1.81817627-1.7276001h.48931885V3.53227234h.00976562c.00271607-.18969727.00546265-.32640076.00933838-.3604889C2.5196228 1.3637848 4.10968018 0 6.02453613 0 8.0743103 0 9.74157715 1.58459473 9.74157715 3.53227234v1.56829834zm-6.322052-1.83244324C3.56027222 1.99919128 4.67816162 1.0433197 6.02453613 1.0433197c1.44424439 0 2.61941529 1.11628723 2.61941529 2.4889679v1.56829834H3.40548706c.00195313-.54019165.00741577-1.68389893.01403809-1.8324585zm7.6430664 7.08787537c0 .62724304-.54003906 1.1403656-1.2001648 1.1403656H2.18701173c-.659729 0-1.19976807-.51312256-1.19976807-1.1403656V7.35057068c0-.62724304.54003906-1.14038086 1.19976807-1.14038086h7.67541504c.66012573 0 1.2001648.51313782 1.2001648 1.14038086v3.00543213z"/>
</svg>
