<svg xmlns="http://www.w3.org/2000/svg" width="20" height="21.246" viewBox="0 0 20 21.246">
  <g>
    <path fill="rgb(246,246,246)" fill-rule="evenodd" d="M13.29980469 16.99176025h-3.9650879V3.7142334c0-.53613281-.11706542-.72450257-.60473632-.89353943l-3.20910645-1.1446991-.56091308-.20768737v-.03865052h8.36914062v6.35621643h1.30700684V.84524536C14.6361084.26081848 14.38745117 0 13.84118652 0H.78039551C.2487793 0 0 .26564026 0 .83558655v16.70195007c0 .52163696.13659668.73416138.59985352.89837647l3.41394043 1.21714782 4.32116699 1.5359192c.56567383.19319152.97546386-.11592103.97546386-.73898316v-2.02374268h4.4527588c.64855956 0 .8729248-.24150085.8729248-.93701172v-6.84403991h-1.33630371v6.34655761zm-11.95861817-.0241394V1.70014954l.24865723.08210754c2.05493164.73738098 4.11462402 1.4683075 6.17932129 2.1927948.16577148.05796814.2145996.14007568.2145996.3236084v15.24331665c-.0727539-.0145874-.14453124-.0339508-.2145996-.05796814-2.0744629-.74380493-4.15039063-1.47956848-6.22802734-2.2072754-.13793946-.035614-.2249756-.17019652-.19995118-.30911254z"/>
    <path fill="rgb(246,246,246)" fill-rule="evenodd" d="M17.64038468 9.91105684h-6.39874314c-.33326253-.02816411-.58489623-.31144427-.57061962-.64238302-.06220707-.34520732.16876316-.67536632.51697162-.73898197.11737235-.02162216.23666552-.0313323.35602763-.02897969h6.14513442c-.09266472-.1110888-.14143563-.17387811-.19996072-.23183748-.4243069-.45884502-.8534909-.91286008-1.28267488-1.3717051-.28517792-.27651886-.29811279-.726998-.02926255-1.01911893.11846163-.14682933.29793312-.23232078.48770908-.23232078.18977597 0 .36924746.08549145.48770908.23232078.43893818.48299475.86812217.92251998 1.30218325 1.38619494l1.2729207 1.35238531c.1726378.14499688.27216768.35783351.27216768.58200868 0 .22417516-.09952988.4370118-.27216768.58200868 0 0-1.24365816 1.33306551-2.4921934 2.65647114l-.17069818.15455832c-.12308238.11480246-.28907267.17333535-.45772112.16140548-.16864845-.01192988-.32455296-.093233-.4299094-.2241948-.25292299-.27328533-.25292299-.69270418 0-.9659895.43406107-.48299476.88275343-.96598951 1.3265687-1.44898427.06340217-.06761926.13655853-.12557863.2048378-.18836795l-.06827927-.01448984z"/>
  </g>
</svg>
