<svg xmlns="http://www.w3.org/2000/svg" width="23" height="23" viewBox="0 0 23 23">
  <g>
    <path fill="rgb(255,255,255)" fill-rule="evenodd" d="M0 11.5C0 17.85125732 5.14872742 23 11.5 23c6.34867096-.00628662 11.4937172-5.15130615 11.5-11.5C23 5.14874268 17.85127258 0 11.5 0S0 5.14874268 0 11.5zm.985878 0C.985878 5.6932373 5.6932106.98590088 11.5.98590088 17.30288696.99530029 22.00471115 5.69714355 22.014122 11.5c0 5.80682373-4.70732879 10.51416016-10.514122 10.51416016C5.6932106 22.01416016.985878 17.30682373.985878 11.5z"/>
    <path fill="rgb(255,255,255)" fill-rule="evenodd" d="M12.22272083 12.19445435l.16746302-.04220183c1.37183966-.24332274 2.39207613-1.41428163 2.45437998-2.81697248.12826425-1.07577508-.34013748-2.13560616-1.21934016-2.75894496-1.29405009-.87107696-2.97737524-.88557985-4.28600682-.0369266-.6356482.37363251-1.085853.99978762-1.24027304 1.725-.0717719.23103352-.04484561.48176093.07431136.69195957.11915698.21019865.3197778.36087527.55367499.4158386.32917591.07059037.66720875-.07243899.84778157-.3587156.19362912-.24793578.36632537-.52752294.57042093-.74908257.1338073-.15971567.2951393-.293749.47622298-.3956422.29996998-.14842332.63750918-.20175962.96814562-.15298165.5362149.0190642 1.00394513.3726779 1.17224118.88623853.17236354.58595597-.03665733 1.21805234-.52332195 1.5825688-.21945123.13521057-.45066892.24998176-.69078499.34288991-.25642776.11077982-.52332195.19518349-.78498293.3059633-.25680358.09559473-.42358785.34671537-.41342435.62247707v1.70917431c-.01321268.24826812.07702221.49081968.24892485.66911044.17190263.17829075.4098547.276122.65642214.26988039.24657294.01802827.48855886-.07401514.66185248-.2517467.17329362-.17773157.2604065-.42321499.23826128-.67141844.04186576-.29541284.0523322-.62247706.06803186-.98646789z"/>
    <path fill="rgb(255,255,255)" fill-rule="evenodd" d="M11.3069074 17.3061516c.57804547 0 1.04664392-.47236013 1.04664392-1.05504587 0-.58268575-.46859845-1.05504587-1.04664392-1.05504587-.28387838-.0100217-.55960568.09669449-.76388538.29565058-.2042797.1989561-.3195651.47306268-.31939107.75939529.01704162.58982453.49790909 1.05816041 1.08327645 1.05504587z"/>
  </g>
</svg>
