<svg xmlns="http://www.w3.org/2000/svg" width="19.482" height="20" viewBox="0 0 19.482 20">
  <path fill="rgb(28,28,28)" fill-rule="evenodd" d="M19.34580994 18.97236633l-.86090088.87681961C18.39851379 19.94528198 18.27645874 20 18.14852906 20c-.1279297 0-.24998475-.05471802-.33638001-.15081406l-4.63520813-4.7209053c-.08578491-.08777618-.13308716-.20715332-.13113404-.33098602v-.51099396c-3.27342224 2.79634857-8.13235473 2.45409393-10.99664306-.77459717C-.81512451 10.2830162-.65826416 5.3250084 2.4041748 2.2908249c3.06242371-3.0341816 7.9329071-3.05713463 11.02278138-.05194664 3.08987426 3.00518608 3.29177856 7.96150398.45695495 11.21705437h.50170899c.12159729-.00198746.23880005.04618072.32498169.13355255l4.63520813 4.72090912c.08705139.08731079.13607788.20654678.13607788.33098602 0 .12443542-.0490265.2436676-.13607788.33098602zm-17.1223755-8.42737579c.947464 2.3265953 3.17817689 3.8423729 5.65122987 3.84002304 1.61946106 0 3.1725769-.65522003 4.31770324-1.82151794 1.14512635-1.16629792 1.78845215-2.74813843 1.78845215-4.39753342.00230408-2.51877594-1.48594665-4.79073525-3.77030945-5.75571442-2.28436279-.96497917-4.91456604-.4327755-6.6632843 1.34826851-1.74871826 1.78104592-2.2712555 4.4598751-1.3237915 6.78647423z"/>
</svg>
