<svg xmlns="http://www.w3.org/2000/svg" xmlns:xlink="http://www.w3.org/1999/xlink" width="48.803" height="48.269" viewBox="0 0 48.803 48.269">
  <defs>
    <ellipse id="ellipse-1" cx="24.402" cy="24.134" rx="17.859" ry="17.5"/>
  </defs>
  <g>
    <g transform="rotate(-13.280005 24.4015153 24.13446245)">
      <use fill="rgb(96,58,150)" xlink:href="#ellipse-1"/>
      <use fill-opacity="0" stroke="rgb(96,58,150)" stroke-dasharray="0 0 0 0" stroke-linecap="butt" stroke-linejoin="miter" stroke-width="6" xlink:href="#ellipse-1"/>
    </g>
    <path fill="rgb(255,255,255)" fill-rule="evenodd" d="M21.65590058 24.23310368l6.31549178 3.24370033v-2.98029765l-3.41296304-1.75799087-2.90252874 1.4945882z"/>
    <path fill="rgb(255,255,255)" fill-rule="evenodd" d="M20.85249512 28.5748084v2.9891764l6.32153242-3.25257907-2.90252874-1.49162861-3.41900368 1.75503128z"/>
    <path fill="rgb(255,255,255)" fill-rule="evenodd" d="M20.85249512 23.38074448l7.11889724-3.63732454v-2.98621681l-7.11889724 3.66396076v2.95958059z"/>
    <path fill="rgb(255,255,255)" fill-rule="evenodd" d="M30.23663264 16.04690752v4.31210327h.00603866c0 .45578003-.25672531.8760376-.67050934 1.08616638l-1.31082153.67182922 1.31988144.677742c.40472412.20716859.66144943.62151338.66144943 1.071373v4.673172c0 .47057342-.26880646.8997116-.69467163 1.1157608l-8.4448204 4.26180267c-.11175156.05326843-.22954178.09174347-.35337448.10949707-.46512986.06511688-1.19604874 0-1.57661057-.32554627-.29598999-.29003906-.60708237-.80796814-.60708237-1.50643158v-4.20555877c0-.46170044.2627678-.88491822.67957306-1.10096741l1.33498001-.68662262-1.35612487-.69550323c-.40774155-.20716858-.66144944-.61855317-.66144944-1.06840516v-4.58734893c0-.44689942.25068665-.858284.65238953-1.07137299l8.5203247-4.49559784c.48023225-.1982956 1.47995759.07102966 1.95716859.4587326.4107666.33443452.55574035.8937912.5436592 1.30517579zm-1.5222435 4.55774688c.23256683-.12133789.37754058-.36106872.37754058-.61855316v-3.8888855c0-.22789001-.11476898-.4439392-.3050499-.57415771l-.07852935-.04735565c-.20840073-.1035843-.4530487-.1035843-.66144943 0l-7.88002014 4.05166626-.0906067.04439544c-.2144432.13021851-.34431838.35810852-.34431838.60671235v3.88889312c.00604248.26635743.16309738.50904084.40472412.62742615l2.92971039 1.50642395-2.95085526 1.51826477c-.23558426.11838532-.38357925.35811615-.38357925.61855316v3.88889313c0 .22789002.1147728.4439392.3050537.57415772l.0815468.04735565c.0996704.05326843.21142196.07990265.32619475.07990265.11779404 0 .23256684-.02663422.33525467-.07990265l7.92834473-4.0871811.08154678-.05031585.03020478-.0207138c.02114105-.01184083.03926468-.02664185.05436706-.04439545l.07550812-.0887909c.01509857-.0177536.03020096-.03551483.0422821-.05622864l.07550812-.17165374c.01510239-.06215668.0241623-.12430573.0241623-.18941498v-3.8740921c0-.07398987-.01207734-.14797974-.03624344-.2190094-.02114106-.06806946-.05134201-.1302185-.09362793-.18645478l-.0906105-.10654449-.16007615-.11837769-2.94783401-1.51235199 2.95085144-1.51826477z"/>
  </g>
</svg>
