<svg xmlns="http://www.w3.org/2000/svg" width="17.352" height="19.705" viewBox="0 0 17.352 19.705">
  <g transform="rotate(-179.999936 9.85231505 9.85231505)">
    <path fill="rgb(246,246,246)" fill-rule="evenodd" d="M6.72075628 12.74234203c.23051317.23188935.23051275.60639892-9.5e-7.83828775-.23188935.23051318-.60639891.23051276-.83828775-9.4e-7l-3.29963957-3.30559229c-.23051317-.23188935-.23051275-.60639892 9.4e-7-.83828775l3.34126416-3.34125665c.23588624-.20200735.58751161-.18842519.80711246.03117616.21960086.21960135.23318223.57122674.03117435.80711253L4.47343561 9.22866531l7.31866825.00000822c.32835003 3.7e-7.59453002.26618096.59452965.59453099-.00065976.15888579-.06488997.31089681-.17835957.42211633-.11073772.10983588-.2602024.17175677-.41617141.17241332l-7.37812129-.00000829 2.30677504 2.32461615z"/>
    <path fill="none" stroke="rgb(246,246,246)" stroke-linecap="round" stroke-linejoin="miter" stroke-width="1" d="M16.35231505 2.35231505v15"/>
  </g>
</svg>
