<svg xmlns="http://www.w3.org/2000/svg" width="12" height="2.675" viewBox="0 0 12 2.675">
  <g>
    <path fill="rgb(97,60,151)" fill-rule="evenodd" d="M1.33333333 0c.7358867 0 1.33333334.59744663 1.33333334 1.33333333v.00863c0 .7358867-.59744664 1.33333333-1.33333334 1.33333333S0 2.07785002 0 1.34196332v-.00862999C0 .59744663.59744663 0 1.33333333 0z"/>
    <path fill="rgb(97,60,151)" fill-rule="evenodd" d="M10.66666667 0C11.40255337 0 12 .59744663 12 1.33333333v.00863c0 .7358867-.59744663 1.33333333-1.33333333 1.33333333-.7358867 0-1.33333334-.59744664-1.33333334-1.33333334v-.00862999C9.33333333.59744663 9.93077997 0 10.66666667 0z"/>
    <path fill="rgb(97,60,151)" fill-rule="evenodd" d="M6 0c.7358867 0 1.33333333.59744663 1.33333333 1.33333333v.00863c0 .7358867-.59744663 1.33333333-1.33333333 1.33333333-.7358867 0-1.33333333-.59744664-1.33333333-1.33333334v-.00862999C4.66666667.59744663 5.2641133 0 6 0z"/>
  </g>
</svg>
