<svg xmlns="http://www.w3.org/2000/svg" width="20" height="20" viewBox="0 0 20 20">
  <g>
    <path fill="rgb(255,255,255)" fill-rule="evenodd" d="M10 0c5.51915024 0 10 4.48084976 10 10s-4.48084976 10-10 10S0 15.51915024 0 10 4.48084976 0 10 0z"/>
    <g>
      <path fill="rgb(97,60,151)" fill-rule="evenodd" d="M5.33333333 8.66235167c.7358867 0 1.33333334.59744664 1.33333334 1.33333334v.00862998c0 .7358867-.59744664 1.33333334-1.33333334 1.33333334S4 10.74020169 4 10.00431499v-.00862998c0-.7358867.59744663-1.33333334 1.33333333-1.33333334z"/>
      <path fill="rgb(97,60,151)" fill-rule="evenodd" d="M14.66666667 8.66235167C15.40255337 8.66235167 16 9.25979831 16 9.99568501v.00862998c0 .7358867-.59744663 1.33333334-1.33333333 1.33333334-.7358867 0-1.33333334-.59744664-1.33333334-1.33333334v-.00862998c0-.7358867.59744664-1.33333334 1.33333334-1.33333334z"/>
      <path fill="rgb(97,60,151)" fill-rule="evenodd" d="M10 8.66235167c.7358867 0 1.33333333.59744664 1.33333333 1.33333334v.00862998c0 .7358867-.59744663 1.33333334-1.33333333 1.33333334-.7358867 0-1.33333333-.59744664-1.33333333-1.33333334v-.00862998c0-.7358867.59744663-1.33333334 1.33333333-1.33333334z"/>
    </g>
  </g>
</svg>
