<svg xmlns="http://www.w3.org/2000/svg" width="24" height="18.733" viewBox="0 0 24 18.733">
  <g>
    <path fill="rgb(255,255,255)" fill-rule="evenodd" d="M8.88864899 3.11140442c0 1.71429443 1.39712143 3.11141968 3.11140823 3.11141968 1.7142868 0 3.11140823-1.39712525 3.11140823-3.11141968C15.11146545 1.39712524 13.71434402 0 12.00005722 0c-1.7142868 0-3.11140823 1.39712524-3.11140823 3.11140442zm.99565124.00401306c0-1.16827393.9514885-2.11575317 2.11575699-2.11575317 1.16828537 0 2.11575699.9514923 2.11575699 2.11575317 0 1.16427612-.94747162 2.11174011-2.11575699 2.11174011-1.16828155 0-2.11575699-.94345092-2.11575699-2.11174011z"/>
    <path fill="rgb(255,255,255)" fill-rule="evenodd" d="M20.94485855 12.36132813c1.71026611.7748413 2.65372849 2.15589904 2.98694992 3.97457885l-.00401687.00802613c.05620574.30110168.06825256.61022949.07226562.91937255.00401688.32920838-.19672012.55001831-.47775269.57008362-.29307174.02008057-.53395462-.20474243-.55403137-.5339508-.04014587-.66242981-.15657043-1.30078125-.40950012-1.91903687-1.0237503-2.51321411-4.4041481-3.2037506-6.3312149-1.29675293-.15657044.15255737-.28905869.31715393-.41351319.48176575.63031006.72665405 1.03178406 1.62194824 1.2244873 2.6737976.05620576.3011017.06825257.61024476.07226563.91937256.00401306.32920838-.19672012.55001832-.47775268.57008362-.29307556.02008057-.53395844-.20474243-.55403138-.5339508-.04014587-.66242981-.15657424-1.300766-.40950012-1.91903687-1.02375412-2.5132141-4.4041481-3.2037506-6.3312149-1.29675293-.81498719.80696106-1.2004013 1.7865448-1.29273987 2.90664673-.00802994.12446594-.00802994.256958-.02810288.3814087-.04014587.26898193-.28103256.47775268-.5259285.46569823-.2609558-.01203918-.50183868-.24890136-.50183868-.52592468.00401306-1.34492492.37738037-2.51722717 1.16828156-3.48878479-.11642456-.1565857-.24088288-.30511474-.38541413-.44563293-1.92706298-1.90298462-5.30745887-1.21244812-6.331213 1.29675293-.25292777.61827087-.36935424 1.25660705-.40950202 1.91903686-.02007294.32920838-.26095581.55403137-.55403137.5339508-.28103066-.0200653-.48176575-.24087524-.47775078-.57008361.00401497-.30914307.01605797-.62228394.06423569-.92739868.33322143-1.81867981 1.27667999-3.19973755 2.98695182-3.97457886.46570587-.21278381.98360825-.32118225 1.43325425-.46168518-1.67413712-.32519531-2.66175843-1.77049255-2.55737687-3.33624268.10839844-1.58581543 1.38507843-2.80628967 3.0913353-2.86650085 1.44530106-.05220032 2.78220367.94746399 3.1033783 2.51321411.176651.86717224 0 1.67012024-.50585175 2.3967743-.49782562.71864318-1.19638824 1.1281433-2.09970093 1.30880737 1.453331.26898193 1.95918274.57409668 2.50920105 1.00367736.3372345.26095581.63031006.54600525.87922287.85112.06022263-.048172.1124115-.10037232.17263413-.14854431.5500183-.43359375 1.05587005-.7387085 2.50920105-1.00367737-.90331269-.176651-1.6018753-.59016419-2.09970093-1.30879211-.50585556-.72666932-.68250275-1.52961731-.50585556-2.39678956.32117844-1.56575012 1.65808105-2.56541442 3.1033821-2.5132141 1.70625306.06021117 2.98694993 1.28068542 3.0913315 2.86650085.10438537 1.56575012-.88323594 3.01104736-2.55737306 3.33624267.449646.144516.9635315.24890137 1.43325425.46168518.36533737.16862488.69053268.3653412.9876213.58615113.26496888-.32920838.57009125-.63833618.93141175-.91937256.5500183-.43359375 1.05587387-.7387085 2.50920105-1.00367737-.90331269-.176651-1.6018715-.59016418-2.09969712-1.30880737-.50585556-.72665406-.68250274-1.52960205-.50585556-2.39678955.32117844-1.56573487 1.65808106-2.56539917 3.1033783-2.51321411 1.70625687.06022644 2.98695373 1.28070068 3.0913353 2.8665161.10438156 1.56573487-.88323594 3.01104737-2.55737687 3.33622743.44964982.14453125.9635315.24891662 1.43325806.46170043zm-2.1157608-5.60856629c-1.07995987.02810669-1.97925568.98361206-1.9511528 2.06758118v.00401306c.02810287 1.16427612.97156143 2.10772705 2.06758117 2.06758118 1.19237137-.04415894 2.09568405-.96754456 2.05955124-2.103714-.04014587-1.22047424-.94747162-2.06758117-2.17597961-2.03546142zM2.99504089 8.98092651c-.0361328 1.13616944.86717987 2.05955506 2.05955124 2.103714v-.00401307c1.09601975.04415894 2.0394783-.899292 2.06758118-2.06758118.02810287-1.08396911-.87119293-2.03947448-1.9511528-2.06758117-1.22850418-.03211975-2.13583374.81498718-2.17597962 2.03546142zm6.98962784.73469544c-.02810287-1.08396912.87119293-2.03947449 1.9511528-2.06758118 1.22850418-.03211975 2.13583374.81498718 2.17597962 2.03546143.03613281 1.13616943-.86717987 2.05955505-2.05955124 2.10371399-1.09601975.04014587-2.0394783-.90330506-2.06758118-2.06758118v-.00401306z"/>
  </g>
</svg>
