<svg fill='#603A96' xmlns="http://www.w3.org/2000/svg" width="22.695" height="20" viewBox="0 0 22.695 20">
  <g>
    <path fill-rule="evenodd" d="M7.7418735 5.47143045l2.83598601-2.839821v9.0505464c0 .19562789.07760793.38324336.21575093.52157317.138143.1383298.32550511.21604268.52086881.21604268.40682386 0 .73661975-.33024187.73661975-.73761585V2.5357194l2.8875494 2.88407795c.17293656.2308939.46446987.33957718.74609213.2781423.28162226-.06143489.50159027-.28170035.56294219-.56370343.06135192-.2820031-.0471846-.57393063-.27776669-.74710105L11.88167646.28599106C11.59436716 0 11.1303519 0 10.84304262.28599107L6.70323966 4.43139212c-.2502863.29265667-.23345856.72890768.03862597 1.00136014.27208453.27245246.70774642.28930295 1.00000787.0386782z"/>
    <path fill-rule="evenodd" d="M22.69525429 9.7200977c0-.23279718-.09235344-.4560596-.2567436-.62067206-.16439018-.16461247-.3873511-.25709079-.6198339-.25709079h-5.48781708c-.48412038 2e-8-.87657747.39298783-.87657747.87776286 0 .48477503.3924571.87776284.87657747.87776285h4.78802833v6.80819424c-.01606006.55932707-.4799684 1.00080068-1.03863384.98840523H2.94647897c-.36513522.00999983-.71869172-.1288065-.97974003-.3846461-.26104831-.25583959-.40723764-.60680759-.40510508-.97256705v-6.43938632h4.80276072c.48412037-1e-8.87657747-.39298783.87657747-.87776285 0-.48477503-.3924571-.87776284-.87657747-.87776286H.87657749C.39245711 8.84233485 0 9.23532267 0 9.72009771v7.31714917c0 1.62949592 1.31918357 2.95046337 2.94647897 2.95046337H20.0802542C21.50131152 20 22.66433363 18.85849914 22.6805219 17.43555943V9.81598777c.00756412-.03149772.01249199-.0635722.01473239-.09589006z"/>
  </g>
</svg>
