<svg xmlns="http://www.w3.org/2000/svg" width="24.189" height="23.617" viewBox="0 0 24.189 23.617">
  <g>
    <path fill="rgb(255,255,255)" fill-rule="evenodd" d="M22.1311245 6.66526794c.57593536.0751648 1.10436248.38725281 1.4784584.87319947.49427414.6649475.68624878 1.54008484.52180863 2.37872314l-1.80344391 10.68917847c-.2843361 1.68785095-1.5942688 2.93669128-3.15832138 3.0110321H3.57027244c-1.18583679-.00138855-2.2930336-.65068054-2.95234107-1.7313385H.53554153v-.14051819C.18716621 21.13076783.00173378 20.42181396 0 19.69804383V7.02659606c.00383186-1.70619202 1.0177288-3.21203613 2.50376892-3.71862793C2.75468826 1.44450378 4.19174385.04896545 5.9092617.00083924h13.9286461c.77932357-.02050782 1.52684402.33880615 2.04111861.98110961.5142746.64230347.74238587 1.50152588.62285614 2.3460846l-.37075805 3.3372345zM5.79940605 1.10488892c-1.15649795.02661132-2.12524032.96762085-2.28863525 2.22314453l-.95665169 8.81732177c-.00915337 0-.11443138.97357178-.25632668 2.29841614l.80559922-4.78251648c.28628921-1.6886444 1.59776687-2.93714905 3.16289901-3.01104736H21.1470089l.36160278-3.32217407c.07854462-.56416321-.07442474-1.13752747-.41788483-1.56636048-.34345627-.428833-.84226608-.66925048-1.3626709-.65678405H5.79940605zM1.1900921 7.02658082c.00308418-.90998841.44078636-1.75169374 1.1534729-2.2181244l-1.1534729 10.81463623V7.02658081zm19.9569168 13.3087921L22.945879 9.66125488c.09860992-.4487915.00784301-.92240905-.24717332-1.28973388-.22769165-.29211426-.56530761-.453125-.91545486-.43659974H6.2205181c-.98767471.0840149-1.80254364.8808899-1.99111557 1.9471283L2.42595673 20.5712433c-.09701157.44474792-.004385.91374206.25175094 1.2746582.22598076.29464722.56478691.45622253.91545296.43661499h15.56273651c.9870224-.0856781 1.80110931-.88179016 1.99111176-1.94714356z"/>
    <path fill="rgb(255,255,255)" fill-rule="evenodd" d="M5.30963924 11.84425025h5.81313868c.34525262-.0220585.6421699-.27569363.74609576-.6373361.05283878-.14879784.03343384-.31680135-.05156775-.44646164-.08500159-.1296603-.22406005-.20337478-.36954151-.19589285H5.63462573c-.34696222.02137278-.64488606.27787164-.74609575.64235449-.05340868.1482589-.03410681.31614964.0511879.4452406.08529473.12909098.22478417.20152609.36992136.1920955z"/>
    <path fill="rgb(255,255,255)" fill-rule="evenodd" d="M12.0977374 12.8830579H5.50188477c-.34696222.02137278-.64488606.27787165-.74609575.6423545-.05340868.1482589-.03410681.31614963.0511879.4452406.08529472.12909098.22478417.20152608.36992135.19209549h6.59585264c.34525262-.02205849.6421699-.27569363.74609575-.6373361.05283879-.14879784.03343384-.31680134-.05156774-.44646164-.0850016-.1296603-.22406006-.20337477-.36954152-.19589285z"/>
    <path fill="rgb(255,255,255)" fill-rule="evenodd" d="M16.56973457 4.14102173c-.16054916 1.2982788-1.16243744 2.27302551-2.35729599 2.293396-.53038025-.00132752-1.03417205-.25476075-1.3809967-.6946869-.34682846-.4399414-.50260925-1.02314758-.42702866-1.5987091.16682053-1.28302002 1.1527977-2.24743652 2.33441162-2.28337097.5356102-.0160675 1.05000306.22981262 1.40377427.6710205.35377502.44119263.51029205 1.03201294.42713546 1.61235047zm-1.97280502-1.1743164c-.60835648.01594543-1.11633682.51335143-1.19924545 1.1743164-.04722214.2986908.03121948.60476684.21342087.83279419.18220138.22801208.44863891.35353088.72492218.34150696.60861969-.01763916 1.1170578-.51361084 1.20382308-1.17430115.04742432-.29959107-.03158569-.60661316-.21484375-.83483887-.18326187-.2282257-.45101165-.35307312-.72807693-.33947754z"/>
  </g>
</svg>
