<svg xmlns="http://www.w3.org/2000/svg" xmlns:xlink="http://www.w3.org/1999/xlink" width="219.105" height="48.269" viewBox="0 0 219.105 48.269">
  <defs>
    <ellipse id="ellipse-1" cx="24.402" cy="24.134" rx="17.859" ry="17.5"/>
    <rect id="rect-6" width="158.487" height="16" x="60.618" y="16.043"/>
    <mask id="mask-7" maskContentUnits="userSpaceOnUse" maskUnits="userSpaceOnUse">
      <rect width="219.105" height="48.269" x="0" y="0" fill="black"/>
      <use fill="white" xlink:href="#rect-6"/>
    </mask>
  </defs>
  <g>
    <g>
      <g transform="rotate(-13.280005 24.4015153 24.13446245)">
        <use fill="rgb(96,58,150)" xlink:href="#ellipse-1"/>
        <use fill-opacity="0" stroke="rgb(96,58,150)" stroke-dasharray="0 0 0 0" stroke-linecap="butt" stroke-linejoin="miter" stroke-width="6" xlink:href="#ellipse-1"/>
      </g>
      <path fill="rgb(255,255,255)" fill-rule="evenodd" d="M21.65590058 24.23310368l6.31549178 3.24370033v-2.98029765l-3.41296304-1.75799087-2.90252874 1.4945882z"/>
      <path fill="rgb(255,255,255)" fill-rule="evenodd" d="M20.85249512 28.5748084v2.9891764l6.32153242-3.25257907-2.90252874-1.49162861-3.41900368 1.75503128z"/>
      <path fill="rgb(255,255,255)" fill-rule="evenodd" d="M20.85249512 23.38074448l7.11889724-3.63732454v-2.98621681l-7.11889724 3.66396076v2.95958059z"/>
      <path fill="rgb(255,255,255)" fill-rule="evenodd" d="M30.2366333 16.04690361v4.312109h.00604248c0 .4557762-.25672912.87603378-.67051697 1.08616638l-1.3108139.6718254 1.31987762.677742c.40472413.2071724.66145325.62151338.66145325 1.07136918v4.67317581c0 .47057343-.26881409.89971543-.69467926 1.11576462l-8.44481659 4.26179504c-.11175155.05327225-.22954178.09174729-.35337448.1095047-.46512985.06511307-1.19604874 0-1.57661056-.3255539-.29599-.29003905-.60708237-.80796432-.60708237-1.50642776V27.9888115c0-.46169662.26276779-.8849144.67957306-1.10096359l1.33498-.68662262-1.35612487-.69550323c-.40774155-.20716858-.66144943-.61855317-.66144943-1.06840897v-4.58734894c0-.4468956.25068664-.85827827.65238952-1.07136726l8.52032853-4.49560356c.4802246-.19829178 1.47995758.07102966 1.95716858.4587345.41075897.33443261.55574035.89379312.5436554 1.30517579zm-1.52223968 4.55775642c.23256683-.12134552.37754058-.36106872.37754058-.61855316v-3.88888931c0-.2278881-.1147766-.4439373-.3050537-.57415962l-.07852936-.04735184c-.20840455-.1035862-.45304871-.1035862-.66145325 0l-7.88001633 4.05166435-.09060669.04439545c-.2144432.13022232-.34431839.35810852-.34431839.60671234v3.88888931c.00604248.26636124.16309738.50904847.40472412.62742997l2.9297104 1.50642776-2.95085526 1.51826477c-.23558426.11838532-.38357926.35810852-.38357926.61855316v3.8888855c0 .22789002.1147728.44393921.30505371.57416153l.08154679.04735184c.0996704.05327606.21142196.07991028.32619476.07991028.11779404 0 .23256683-.02663422.33525467-.07991028l7.92834473-4.0871811.0815506-.05031204.03020477-.02071762q.03171539-.0177536.05435943-.04439163l.07550812-.08878708c.0151062-.01775741.03020477-.03551483.04228973-.05623245l.07550812-.17165756c.01509857-.06214905.0241623-.12430191.0241623-.18941117v-3.8740921c0-.07398987-.01208497-.14797973-.03624726-.2190094-.02114105-.06806946-.05134582-.13022232-.09362793-.18645096l-.09061432-.10654449-.16007232-.11838531-2.94783783-1.51234437 2.95085907-1.51826477z"/>
    </g>
    <g>
      <use fill="none" xlink:href="#rect-6"/>
      <g mask="url(#mask-7)">
        <path fill="rgb(255,255,255)" fill-rule="evenodd" d="M63.00689896 28.8093863c-.96973554-.23423848-1.76484437-.54781581-2.38904196-.94073199l1.33756626-3.08288076c.58704297.3475797 1.24467972.62337663 1.97291024.83494688.72823052.2077922 1.42673734.31357733 2.09552047.31357733.57589659 0 .98831285-.0566706 1.23353333-.1700118.24522048-.11334121.37154619-.28335302.37154619-.51003543 0-.2644628-.15976486-.4609209-.48301004-.58937426-.32324518-.1322314-.85455623-.27579693-1.59393313-.43069658-.95115823-.20401416-1.7425516-.41936245-2.37789557-.65360094-.63534398-.23423849-1.18523233-.61582054-1.65709598-1.1485242-.47186365-.53270366-.70593775-1.25053129-.70593775-2.15726092 0-.7896104.21549679-1.50365998.65020582-2.14970485.43470904-.64604486 1.08491486-1.15230224 1.946902-1.52255017.86198715-.37024794 1.91346285-.55914994 3.14699618-.55914994.8471253 0 1.67567328.094451 2.49307489.27579693.8174016.18512396 1.53448573.45714285 2.15868332.81605667l-1.25211064 3.06399055c-1.21124055-.61959858-2.3556028-.93317591-3.4368022-.93317591-1.08119939 0-1.6050795.2644628-1.6050795.78961039 0 .24935065.15976485.43825265.4755791.56292798.31581427.12467532.83969438.26068477 1.5679249.4042503.94001185.17756788 1.73140522.38536009 2.37789558.61959858.64649036.23423849 1.2075251.6120425 1.6831042 1.13719008.47557912.52514758.71336868 1.2429752.71336868 2.14970484 0 .78961039-.21921225 1.50365998-.65020582 2.14214876-.43470904.63848878-1.08491486 1.1485242-1.946902 1.52255018-.86198715.37780401-1.91346285.56292798-3.14328071.56292798-1.021752 0-2.01749578-.11711925-2.98723132-.3475797h.00371546z"/>
        <path fill="rgb(255,255,255)" fill-rule="evenodd" d="M83.92866455 25.68116907v3.18866588H73.6739899V16.33051972h10.02431603v3.18866588H77.7609979v1.46965761h5.21650841v3.04510036h-5.21650841v1.6472255h6.16766664z"/>
        <path fill="rgb(255,255,255)" fill-rule="evenodd" d="M98.76449585 31.63913727c.60934448-.26824188 1.13322449-.66493225 1.56793213-1.19008255l.01113891.00378036-1.7982788-2.1497078c-.52760315.53648377-1.09977723.80472184-1.70910645.80472184-.2229309 0-.42727661-.03777695-.60934448-.11711883-.18205261-.07933808-.36410523-.21157074-.53874207-.40424729 1.2186737-.50247955 2.18841553-1.2807579 2.90548706-2.33860779.7170868-1.05784988 1.07377625-2.27060318 1.07377625-3.64580917 0-1.2543106-.3009491-2.3801651-.8991394-3.3775673-.60191346-.99740218-1.42674256-1.77567863-2.48564149-2.33860778-1.05891418-.56292725-2.24786376-.8425026-3.57800293-.8425026-1.3301239 0-2.52279663.27957535-3.57798767.8425026-1.05889892.56292915-1.88745117 1.3412056-2.48564148 2.33860779-.5981903.99740219-.8991394 2.12325668-.8991394 3.37756729 0 1.06163025.21920776 2.0363617.66134644 2.92042542.44213867.8840599 1.05519104 1.62455749 1.84288024 2.22904205.78767396.60448837 1.69796753 1.01251602 2.73086548 1.22786331.75422669.80094528 1.42301941 1.42054367 2.01005555 1.85501862.58705139.4382515 1.17408752.74805069 1.76113891.93317794.58703613.18134308 1.25210571.27579499 1.9914856.27579499.73936462 0 1.41558838-.13600922 2.0249176-.4042511zm-8.45637512-10.69562912c.24520874-.4722557.5796051-.8349495.9957428-1.0918541.41612243-.25690841.88427734-.38536072 1.40072631-.38536072.51644898 0 .98458863.1284523 1.40072632.38536072.4161377.2569046.7505188.6195984.9957428 1.0918541.24893188.4722557.37155151 1.02384949.37155151 1.65855789 0 .63471222-.12632751 1.186306-.37155151 1.6585617-.245224.4722519-.5796051.83494569-.9957428 1.09185029-.4161377.25690841-.88427734.38536072-1.40072632.38536072-.51644897 0-.98460388-.1284523-1.40072631-.38536072-.4161377-.2569046-.75053406-.6195984-.9957428-1.09185028-.24894715-.47225571-.37155152-1.0238495-.37155152-1.65856171 0-.6347084.12632752-1.18630219.37155152-1.6585579z"/>
        <path fill="rgb(255,255,255)" fill-rule="evenodd" d="M103.36052994 27.60041346c-1.05890662-1.03896104-1.5865022-2.49728453-1.5865022-4.37119244v-6.8987013h4.1576018v6.77024793c0 .9218418.15976485 1.5905549.48301003 2.00613932.32324518.41936245.79139337.62715466 1.40072911.62715466.60933574 0 1.07748393-.2077922 1.40072911-.62715466s.48301004-1.08807556.48301004-2.00613932v-6.77024793h4.08700802v6.8987013c0 1.8739079-.52759558 3.3322314-1.5865022 4.37119244-1.05890663 1.03896104-2.53022951 1.56033058-4.42139959 1.56033058-1.89117007 0-3.36620842-.52136954-4.42139958-1.56033058h.00371546z"/>
        <path fill="rgb(255,255,255)" fill-rule="evenodd" d="M116.40180098 16.33051972h4.1576018v12.53931523h-4.1576018V16.33051972z"/>
        <path fill="rgb(255,255,255)" fill-rule="evenodd" d="M135.42868103 16.33051972v12.53931523h-3.41822489l-4.68519737-5.69728454v5.69728454h-4.05356886V16.33051972h3.41822489l4.68519737 5.69728453v-5.69728453h4.05356886z"/>
        <path fill="rgb(255,255,255)" fill-rule="evenodd" d="M138.15211456 28.39757993c-.44213996-.43447462-.66135221-.99362456-.66135221-1.67367178 0-.68004723.21921225-1.23164109.6613522-1.65855962.44213996-.4231405.99574378-.63471075 1.6645269-.63471075.66878314 0 1.22610241.21157025 1.6645269.63471075.44213997.4231405.66135222.97473435.66135222 1.65855962 0 .68382526-.21921225 1.23919716-.66135221 1.67367178-.44213996.43447462-.99574377.65360094-1.6645269.65360094s-1.2261024-.21912632-1.6645269-.65360094z"/>
        <path fill="rgb(255,255,255)" fill-rule="evenodd" d="M163.5658735 16.33051972l-3.94582047 12.54309327h-4.4585542l-1.99148754-6.70224321-2.09552048 6.7022432h-4.4585542l-3.94582046-12.54309326h4.28021203l2.1512524 7.12916174 2.27386264-7.12916174h3.82321023l2.1512524 7.2198347 2.27386264-7.2198347h3.94210501z"/>
        <path fill="rgb(255,255,255)" fill-rule="evenodd" d="M165.41616821 25.97585678c.60191346.9974022 1.42674256 1.77567673 2.48564148 2.33860397 1.05891419.56292725 2.24786377.84250641 3.57798767.84250641 1.33013916 0 2.5228119-.27957916 3.57800293-.8425064 1.05889893-.56292725 1.88745117-1.34120179 2.48564148-2.33860398.59819031-.99740219.8991394-2.1232605.8991394-3.37756729 0-1.2543106-.30094909-2.3801651-.8991394-3.3775711-.60191345-.9974022-1.42674255-1.77567673-2.48564148-2.33860589-1.05891418-.56292724-2.24786377-.8425026-3.57800293-.8425026-1.3301239 0-2.51907348.27957536-3.57798767.8425026-1.05889892.56292916-1.88745117 1.3412037-2.48564148 2.33860588-.5981903.99740601-.8991394 2.1232605-.8991394 3.37757111 0 1.2543068.3009491 2.3801651.8991394 3.3775673zm8.46011353-1.71900558c-.245224.47225189-.5796051.83494568-.9957428 1.09185028-.4161377.25690841-.88427734.38536071-1.40072632.38536071-.51644897 0-.98460388-.1284523-1.40072632-.38536071-.4161377-.2569046-.75053405-.6195984-.9957428-1.09185028-.24894714-.47225571-.3715515-1.0238495-.3715515-1.65856171 0-.6347084.1263275-1.18630219.3715515-1.6585579.24520875-.4722557.5796051-.83494949.9957428-1.09185409.41612244-.25690841.88427735-.38536072 1.40072632-.38536072.51644898 0 .98458863.1284523 1.40072632.38536072.4161377.2569046.7505188.6195984.9957428 1.0918541.24893188.4722557.37155151 1.02384949.37155151 1.65855789 0 .63471222-.12632751 1.186306-.37155151 1.6585617z"/>
        <path fill="rgb(255,255,255)" fill-rule="evenodd" d="M184.81460571 28.87361526v-3.1546669h1.12828064l2.09301758 3.15088654h4.43997192l-2.5896759-3.86871338c.75424194-.39291382 1.32643128-.92561722 1.72769165-1.59432983.3975525-.66871643.5981903-1.45076752.5981903-2.3461647 0-.95584489-.23036193-1.79079056-.68736266-2.50861931-.45700073-.71404839-1.11091614-1.26564217-1.95433045-1.64722443-.8434143-.38158226-1.83543396-.57426262-2.97608947-.57426262h-5.93730164v12.54309463h4.15760803zm1.5196228-9.28264617c.56103516 0 .98458863.1284523 1.26696778.38536071.28237915.2569046.42355347.6195984.42355347 1.08429718 0 .4646988-.14117432.82738877-.42355347 1.08429718-.278656.25690842-.70222473.38536072-1.26696777.38536072h-1.51591492v-2.9393158h1.51591492z"/>
        <path fill="rgb(255,255,255)" fill-rule="evenodd" d="M194.48966234 16.33051972h4.1576018v9.26375442h5.56947729V28.873613h-9.72707909V16.33051972z"/>
        <path fill="rgb(255,255,255)" fill-rule="evenodd" d="M212.14181519 16.33052063h-6.07849122v12.54309463h6.07849122c1.37472534 0 2.58596801-.25690841 3.63745117-.76316452 1.05145263-.5062561 1.86886596-1.23164367 2.44848633-2.17615127.58331298-.94451141.87313842-2.0552559.87313842-3.33223343 0-1.27697754-.29351806-2.3877182-.87313842-3.33222961-.57962037-.94451142-1.3970337-1.66989518-2.44848633-2.17615128-1.05148316-.51003647-2.26272583-.76316452-3.63745117-.76316452zm1.96548461 8.46658707c-.53503417.51759338-1.24838256.77827835-2.1401062.77827835h-1.7462616v-5.9466362h1.7462616c.89172364 0 1.60507202.25690841 2.1401062.77827453.53503418.52136994.80255127 1.25053406.80255127 2.19504166 0 .94451141-.26751709 1.67367172-.80255127 2.19504166z"/>
      </g>
    </g>
  </g>
</svg>
